<svg width="35" height="32" viewBox="0 0 35 32" fill="none" xmlns="http://www.w3.org/2000/svg">
<g clip-path="url(#clip0_2444_84)">
<path d="M17.9474 0.573869C18.5649 0.218592 19.3248 0.218592 19.9423 0.573868L31.8466 7.42315C32.4668 7.78002 32.8492 8.44109 32.8492 9.15669V22.8433C32.8492 23.5589 32.4668 24.22 31.8466 24.5768L19.9423 31.4261C19.3248 31.7814 18.5649 31.7814 17.9474 31.4261L6.04312 24.5769C5.42286 24.22 5.04053 23.5589 5.04053 22.8433V9.15669C5.04053 8.44109 5.42286 7.78002 6.04312 7.42315L17.9474 0.573869Z" fill="#D1D4D6"/>
<path d="M6.16728 9.33371C5.44463 8.88876 4.55536 8.88876 3.83272 9.33371L0.173362 11.5864C-0.552548 12.0333 -1 12.8611 -1 13.7572V18.2428C-1 19.1389 -0.552548 19.9667 0.173346 20.4136L3.8327 22.6663C4.55536 23.1112 5.44463 23.1112 6.16728 22.6663L9.82664 20.4136C10.5525 19.9667 11 19.1389 11 18.2428V13.7572C11 12.8611 10.5525 12.0333 9.82665 11.5864L6.16728 9.33371Z" fill="#494949" stroke="white" stroke-width="2"/>
</g>
<defs>
<clipPath id="clip0_2444_84">
<rect width="35" height="32" fill="white"/>
</clipPath>
</defs>
</svg>
