<svg width="35" height="32" viewBox="0 0 35 32" fill="none" xmlns="http://www.w3.org/2000/svg">
<path d="M17.9473 0.573872C18.5648 0.218595 19.3247 0.218595 19.9422 0.573871L31.8465 7.42315C32.4667 7.78002 32.8491 8.44109 32.8491 9.15669V22.8433C32.8491 23.5589 32.4667 24.22 31.8465 24.5768L19.9422 31.4261C19.3247 31.7814 18.5648 31.7814 17.9473 31.4261L6.043 24.5769C5.42274 24.22 5.04041 23.5589 5.04041 22.8433V9.15669C5.04041 8.44109 5.42274 7.78002 6.043 7.42315L17.9473 0.573872Z" fill="#FF1A67"/>
<path d="M5.76531 12.0073C5.3022 11.7408 4.73231 11.7408 4.2692 12.0073L1.9241 13.3565C1.4589 13.6242 1.17215 14.12 1.17215 14.6567V17.3433C1.17215 17.88 1.4589 18.3758 1.92409 18.6435L4.26919 19.9927C4.73231 20.2592 5.3022 20.2592 5.76531 19.9927L8.11041 18.6435C8.57561 18.3758 8.86236 17.88 8.86236 17.3433V14.6567C8.86236 14.12 8.57561 13.6242 8.11042 13.3565L5.76531 12.0073Z" fill="#028FE9" stroke="white"/>
</svg>
